HIERARCHY
ROOT Hips
{
	OFFSET 0.00000 0.00000 0.00000
	CHANNELS 6 Xposition Yposition Zposition Zrotation Yrotation Xrotation 
	JOINT LHipJoint
	{
		OFFSET 0 0 0
		CHANNELS 3 Zrotation Yrotation Xrotation
		JOINT LeftHip
		{
			OFFSET 3.13874 -1.57224 1.49786
			CHANNELS 3 Zrotation Yrotation Xrotation
			JOINT LeftKnee
			{
				OFFSET 2.10955 -5.79594 0.00000
				CHANNELS 3 Zrotation Yrotation Xrotation
				JOINT LeftAnkle
				{
					OFFSET 2.41843 -6.64458 0.00000
					CHANNELS 3 Zrotation Yrotation Xrotation
					JOINT LeftToe
					{
						OFFSET 0.04713 -0.12948 1.66229
						CHANNELS 3 Zrotation Yrotation Xrotation
						End Site
						{
							OFFSET 0.00000 -0.00000 0.85167
						}
					}
				}
			}
		}
	}
	JOINT RHipJoint
	{
		OFFSET 0 0 0
		CHANNELS 3 Zrotation Yrotation Xrotation
		JOINT RightHip
		{
			OFFSET -3.13988 -1.57224 1.49786
			CHANNELS 3 Zrotation Yrotation Xrotation
			JOINT RightKnee
			{
				OFFSET -2.15006 -5.90725 0.00000
				CHANNELS 3 Zrotation Yrotation Xrotation
				JOINT RightAnkle
				{
					OFFSET -2.34496 -6.44273 0.00000
					CHANNELS 3 Zrotation Yrotation Xrotation
					JOINT RightToe
					{
						OFFSET -0.08699 -0.23900 1.55223
						CHANNELS 3 Zrotation Yrotation Xrotation
						End Site
						{
							OFFSET -0.00000 -0.00000 0.80281
						}
					}
				}
			}
		}
	}
	JOINT lowerback
	{
		OFFSET 0 0 0
		CHANNELS 3 Zrotation Yrotation Xrotation
		JOINT Chest
		{
			OFFSET 0.01292 1.96517 -0.16495
			CHANNELS 3 Zrotation Yrotation Xrotation
			JOINT Chest2
			{
				OFFSET 0.02122 1.88666 0.19706
				CHANNELS 3 Zrotation Yrotation Xrotation
				JOINT lowerneck
				{
					OFFSET 0 0 0
					CHANNELS 3 Zrotation Yrotation Xrotation
					JOINT Neck
					{
						OFFSET -0.01683 1.81591 0.07903
						CHANNELS 3 Zrotation Yrotation Xrotation
						JOINT Head
						{
							OFFSET 0.00815 1.74013 -0.47700
							CHANNELS 3 Zrotation Yrotation Xrotation
							End Site
							{
								OFFSET -0.00204 1.83225 -0.16933
							}
						}
					}
				}
				JOINT LeftCollar
				{
					OFFSET 0 0 0
					CHANNELS 3 Zrotation Yrotation Xrotation
					JOINT LeftShoulder
					{
						OFFSET 3.38482 1.41533 0.19802
CHANNELS 3 Zrotation Xrotation Yrotation
						JOINT LeftElbow
						{
OFFSET 0 -4.327120 0.000000
CHANNELS 3 Zrotation Xrotation Yrotation
							JOINT LeftWrist
							{
OFFSET 0 -3.285870 -0.000000
CHANNELS 3 Zrotation Xrotation Yrotation
								JOINT lhand
								{
									OFFSET 0 0 0
CHANNELS 3 Zrotation Xrotation Yrotation
									JOINT LFingers
									{
OFFSET 0 -0.433160 -0.000000
CHANNELS 3 Zrotation Xrotation Yrotation
										End Site
										{
OFFSET 0 -0.349220 -0.000000
										}
									}
								}
								JOINT LThumb
								{
OFFSET 0 0.000000 0.000000
CHANNELS 3 Zrotation Xrotation Yrotation
									End Site
									{
OFFSET 0 -0.354560 0.354560
									}
								}
							}
						}
					}
				}
				JOINT RightCollar
				{
					OFFSET 0 0 0
					CHANNELS 3 Zrotation Yrotation Xrotation
					JOINT RightShoulder
					{
						OFFSET -3.09725 1.62858 -0.14144
CHANNELS 3 Zrotation Xrotation Yrotation
						JOINT RightElbow
						{
OFFSET 0 -4.291040 0.000000
CHANNELS 3 Zrotation Xrotation Yrotation
							JOINT RightWrist
							{
OFFSET 0 -3.227200 -0.000000
CHANNELS 3 Zrotation Xrotation Yrotation
								JOINT rhand
								{
									OFFSET 0 0 0
CHANNELS 3 Zrotation Xrotation Yrotation
									JOINT RFingers
									{
OFFSET 0 -0.543620 -0.000000
CHANNELS 3 Zrotation Xrotation Yrotation
										End Site
										{
OFFSET 0 -0.438280 -0.000000
										}
									}
								}
								JOINT RThumb
								{
OFFSET 0 0.000000 0.000000
CHANNELS 3 Zrotation Xrotation Yrotation
									End Site
									{
OFFSET 0 -0.444970 0.444970
									}
								}
							}
						}
					}
				}
			}
		}
	}
}
MOTION
Frames: 12
Frame Time: .0083333
-37.2532 15.5132 1.5240 -171.2840 1.3994 -172.7360 0.0000 0.0000 0.0000 -4.6312 -34.8244 -26.0640 0.5000 4.5334 12.5824 1.8828 0.3209 -26.0896 4.6445 -12.9720 -39.2636 0.0000 0.0000 0.0000 45.6943 9.0580 7.2952 -1.5227 -7.7918 22.0836 -1.4027 12.1892 -21.5974 -0.8067 -5.7322 16.0092 2.6123 -1.1053 13.2137 6.6807 2.3990 -13.2639 5.2589 2.2152 -23.5142 -2.8393 -8.0084 -9.6653 -5.2119 -0.6831 47.3611 -1.1670 1.5709 20.4344 -0.0000 0.0000 0.0000 2.4644 33.6094 -8.2053 15.7420 -25.1696 3.5355 24.4465 17.2862 -23.3842 0.0 0.0 0.0 -7.1250 0.0 0.0 -5.0912 55.3151 1.2917 -0.0000 0.0000 0.0000 -29.5159 26.8836 53.3508 -21.1425 -31.9943 -6.1253 -26.6475 -2.7427 17.2855 0.0 0.0 0.0 7.1250 0.0 -0.0 1.2627 49.1721 -0.1299
-37.2947 15.5111 1.2168 -171.5770 1.4982 -172.8420 0.0000 0.0000 0.0000 -6.1063 -34.2106 -25.9704 0.6311 5.0830 14.1454 1.6218 0.4042 -24.2420 4.2540 -12.4909 -37.4915 0.0000 0.0000 0.0000 45.2218 8.5337 8.5775 -1.4722 -7.6673 21.7080 -1.3204 11.3429 -20.8653 -0.6700 -5.2344 14.5784 4.8646 -1.5483 12.8399 6.0087 2.3055 -13.8130 3.1885 1.7247 -23.8849 -5.5980 -7.6179 -7.4702 -3.1744 0.0389 47.2936 0.5537 1.7319 19.8877 -0.0000 -0.0000 0.0000 2.7299 34.8749 -7.6716 15.7268 -25.1488 3.5291 24.4743 17.0536 -23.144 0.0 0.0 0.0 -7.1250 0.0 0.0 -4.9789 55.0677 1.2331 -0.0000 -0.0000 0.0000 -29.1917 28.1307 53.6193 -20.5999 -31.3583 -5.8403 -26.6414 -2.3054 17.4215 0.0 0.0 0.0 7.1250 0.0 -0.0 1.2937 49.3198 -0.1378
-37.3267 15.5216 0.9059 -171.9960 1.5285 -173.0370 0.0000 0.0000 0.0000 -7.6845 -33.2390 -26.3334 0.8712 5.9513 16.6430 1.5517 0.1822 -23.6367 3.6314 -11.6531 -34.5155 0.0000 0.0000 0.0000 44.6437 7.9169 9.8496 -1.4281 -7.5566 21.3752 -1.2106 10.1830 -19.8693 -0.5421 -4.7173 13.1039 4.1716 -1.4835 12.7183 5.9831 2.1718 -13.7668 3.6058 1.7758 -23.7384 -5.3916 -7.7642 -7.8674 -3.2487 -0.2618 47.3858 0.4198 1.6217 20.0593 0.0000 -0.0000 0.0000 2.4728 34.3713 -6.5028 15.5275 -24.8758 3.4448 16.9814 14.1889 -20.5908 0.0 0.0 0.0 -7.1250 0.0 0.0 -11.6372 51.0598 1.7576 0.0000 -0.0000 0.0000 -29.2598 28.6177 53.547 -20.1814 -30.8603 -5.6241 -27.0646 -2.8755 17.4029 0.0 0.0 0.0 7.1250 0.0 -0.0 0.8734 49.3689 -0.0941
-37.3503 15.5402 0.5939 -172.4460 1.4411 -173.2020 0.0000 0.0000 0.0000 -9.1607 -32.4193 -26.4057 1.1127 6.7015 18.8339 1.4331 0.1088 -22.6889 3.0188 -10.7254 -31.3593 0.0000 0.0000 0.0000 44.0380 7.1945 10.9773 -1.3884 -7.4550 21.0706 -1.0940 8.5761 -18.7561 -0.4475 -4.2918 11.8990 3.3810 -1.4577 12.5791 5.9533 1.9737 -13.7640 4.0973 1.8203 -23.6380 -5.2601 -7.9846 -8.2261 -3.3003 -0.6598 47.5255 0.2935 1.4705 20.2591 -0.0000 -0.0000 0.0000 1.8209 33.6494 -3.4237 15.3532 -24.6358 3.3718 16.3868 16.7011 -20.1959 0.0 0.0 0.0 -7.1250 0.0 0.0 -12.0668 50.5666 1.6765 -0.0000 -0.0000 0.0000 -29.0871 29.4445 52.7921 -19.8018 -30.4028 -5.4307 -26.7905 -3.0799 17.0341 0.0 0.0 0.0 7.1250 0.0 -0.0 1.0776 48.9202 -0.1042
-37.3740 15.5678 0.2844 -173.0690 1.3123 -173.2550 0.0000 0.0000 0.0000 -10.9528 -31.5674 -25.9930 1.2874 7.1896 20.2784 1.2601 -0.0919 -21.2041 2.4621 -9.7686 -28.2306 0.0000 0.0000 0.0000 43.1754 6.5660 11.9198 -1.3648 -7.3942 20.8885 -0.9608 6.5117 -17.4881 -0.3228 -3.6519 10.0993 2.3704 -1.4234 12.3467 5.8667 1.7297 -13.8172 4.6667 1.8791 -23.5421 -4.9585 -8.3041 -8.5413 -3.5703 -1.1640 47.6832 0.0045 1.2903 20.4485 -0.0000 0.0000 0.0000 2.5743 33.7208 -6.5754 15.4721 -24.7996 3.4215 23.4448 17.8254 -23.2649 0.0 0.0 0.0 -7.1250 0.0 0.0 -6.1045 54.9854 1.5011 -0.0000 0.0000 0.0000 -28.5638 30.4359 51.2039 -19.3947 -29.9062 -5.2262 -26.0435 -2.558 16.8001 0.0 0.0 0.0 7.1250 0.0 -0.0 1.7648 48.5462 -0.1544
-37.4005 15.6012 -0.0181 -173.5850 1.1707 -173.3850 0.0000 0.0000 0.0000 -12.7413 -30.7279 -25.0043 1.3909 7.4616 21.0903 1.1227 -1.0201 -19.7189 1.9171 -8.6913 -24.8342 0.0000 0.0000 0.0000 42.3917 5.9579 12.5458 -1.4076 -7.5044 21.2187 -0.7801 4.0966 -15.8083 -0.2214 -3.0288 8.3591 1.5378 -1.3840 12.2696 5.7903 1.5449 -13.8396 5.1270 1.9304 -23.5112 -4.5564 -8.5972 -8.7010 -4.0389 -1.6264 47.6707 -0.4019 1.1102 20.4504 -0.0000 0.0000 0.0000 2.8667 33.3541 -7.5061 15.5316 -24.8814 3.4465 23.9256 17.2929 -23.6671 0.0 0.0 0.0 -7.1250 0.0 0.0 -5.7438 55.5049 1.4845 -0.0000 0.0000 0.0000 -28.1645 31.3525 50.2622 -19.1302 -29.5801 -5.095 -25.833 -2.3785 17.274 0.0 0.0 0.0 7.1250 0.0 -0.0 2.0589 49.0285 -0.2046
-37.4243 15.6343 -0.3148 -174.0000 1.0633 -173.7490 0.0000 0.0000 0.0000 -14.5351 -29.7804 -23.3280 1.4097 7.5098 21.2347 1.0284 -2.3261 -18.5289 1.4855 -7.7004 -21.8077 0.0000 0.0000 0.0000 41.9114 5.6078 12.8885 -1.5781 -7.9257 22.4888 -0.5811 1.2810 -14.0171 -0.3854 -3.9868 11.0396 0.8650 -1.3285 12.4875 5.7102 1.3969 -13.7668 5.4821 1.9547 -23.5539 -4.0751 -8.7835 -8.7870 -4.3968 -1.9977 47.5978 -0.7469 0.9911 20.3742 0.0000 -0.0000 0.0000 3.0117 32.8209 -7.4165 15.6433 -25.0346 3.4936 19.3308 15.3378 -22.1094 0.0 0.0 0.0 -7.1250 0.0 0.0 -9.8913 53.0035 1.9629 0.0000 -0.0000 0.0000 -27.8889 32.0681 49.6634 -18.8178 -29.1917 -4.9417 -25.7106 -2.6627 17.432 0.0 0.0 0.0 7.1250 0.0 -0.0 2.2096 49.1804 -0.2279
-37.4477 15.6644 -0.6068 -174.7930 1.0567 -174.3110 0.0000 0.0000 0.0000 -16.9175 -28.7746 -20.9639 1.3444 7.3410 20.7296 0.9508 -3.8227 -17.5413 1.0974 -6.6567 -18.7022 0.0000 0.0000 0.0000 40.8266 5.0529 12.9813 -1.8230 -8.4873 24.2042 -0.3284 -2.1982 -11.8574 -1.2018 -6.9555 19.5837 -0.2585 -1.1836 12.8857 5.5400 1.1814 -13.5801 6.0246 1.9904 -23.5542 -3.5588 -8.9462 -8.9532 -4.6104 -2.4109 47.5441 -1.0343 0.8743 20.3291 -0.0000 0.0000 0.0000 3.2708 32.252 -7.9537 15.8926 -25.3749 3.5998 22.4543 17.4175 -23.0678 0.0 0.0 0.0 -7.1250 0.0 0.0 -7.0658 54.582 1.6696 -0.0000 0.0000 0.0000 -27.5957 32.5199 48.806 -18.3569 -28.6118 -4.7189 -25.4165 -2.6917 17.2019 0.0 0.0 0.0 7.1250 0.0 -0.0 2.4516 48.8841 -0.235
-37.4810 15.7011 -0.8819 -175.3390 1.2349 -174.7430 0.0000 0.0000 0.0000 -18.8113 -27.8571 -18.6115 1.2399 7.0609 19.8959 0.8971 -5.5175 -16.8972 0.7503 -5.5327 -15.4344 0.0000 0.0000 0.0000 39.7004 4.6844 12.3562 -2.2154 -9.3010 26.7417 -0.0303 -6.2423 -9.6668 -0.1379 -2.3930 6.5931 -0.4031 -1.1356 13.2193 5.3190 1.0928 -13.4664 5.8851 1.9141 -23.6049 -3.9613 -8.9866 -8.7830 -4.1947 -2.6005 47.4872 -0.7858 0.7659 20.2668 0.0000 -0.0000 0.0000 3.5045 31.9747 -9.0861 16.3355 -25.9735 3.7917 24.9255 17.7983 -24.1813 0.0 0.0 0.0 -7.1250 0.0 0.0 -4.8644 56.2559 1.345 0.0000 -0.0000 0.0000 -27.3998 32.8729 48.4136 -17.9852 -28.1382 -4.5423 -24.9286 -2.6224 17.1479 0.0 0.0 0.0 7.1250 0.0 -0.0 2.9155 48.7491 -0.2698
-37.5166 15.7339 -1.1444 -175.9330 1.5035 -175.1240 0.0000 0.0000 0.0000 -20.6348 -26.9564 -16.3733 1.1362 6.7695 19.0344 0.8092 -7.6581 -16.1297 0.4315 -4.2154 -11.6835 0.0000 0.0000 0.0000 38.5531 4.6251 11.2432 -2.7929 -10.3521 30.1246 0.2271 -9.7074 -8.7227 -0.4188 -4.1538 11.5097 -0.6022 -1.0894 13.5757 5.0687 0.9693 -13.3362 5.7558 1.8243 -23.6427 -4.1899 -9.0584 -8.7346 -3.9985 -2.8598 47.3729 -0.7032 0.6109 20.1819 -0.0000 -0.0000 0.0000 3.7987 31.7057 -10.493 16.8571 -26.669 4.023 23.2106 14.5103 -22.2676 0.0 0.0 0.0 -7.1250 0.0 0.0 -6.0001 53.8949 1.3157 -0.0000 -0.0000 0.0000 -27.2199 32.9486 48.1771 -17.7015 -27.7733 -4.4093 -24.1158 -2.5832 17.2351 0.0 0.0 0.0 7.1250 0.0 -0.0 3.7223 48.7164 -0.3416
-37.5459 15.7601 -1.3956 -176.6190 1.8713 -175.5060 0.0000 0.0000 0.0000 -22.3663 -25.8731 -14.4239 1.0615 6.5504 18.3899 0.7271 -9.0924 -15.5433 0.3414 -3.7544 -10.3866 0.0000 0.0000 0.0000 37.1680 4.2411 9.6459 -3.4942 -11.4550 33.8303 0.5173 -13.0137 -8.2147 -0.8314 -5.8171 16.2545 -0.9556 -0.9973 14.0619 4.7612 0.8496 -13.2060 5.6525 1.7546 -23.7736 -4.0938 -9.0814 -8.6323 -4.0430 -3.0698 47.1346 -0.7912 0.4910 19.9631 0.0000 -0.0000 0.0000 4.2937 31.3088 -11.0865 17.2837 -27.2303 4.2163 25.7127 16.3508 -22.6649 0.0 0.0 0.0 -7.1250 0.0 0.0 -3.5144 54.8125 0.8478 0.0000 -0.0000 0.0000 -27.017 32.6587 47.9049 -17.3682 -27.3406 -4.255 -23.63 -2.2831 17.6164 0.0 0.0 0.0 7.1250 0.0 -0.0 4.2782 49.0484 -0.4279
-37.5697 15.7812 -1.6343 -177.6510 2.2779 -175.8330 0.0000 0.0000 0.0000 -24.3504 -24.9093 -12.6006 0.9921 6.3393 17.7723 0.6978 -9.8099 -15.4087 0.3505 -3.8039 -10.5257 0.0000 0.0000 0.0000 36.4539 4.3417 7.3760 -4.3332 -12.5911 37.8565 0.9358 -16.9074 -8.1127 -0.4967 -4.5183 12.5396 -1.7282 -0.8611 14.5623 4.4143 0.6629 -13.0824 5.7744 1.7246 -23.9191 -3.9686 -9.0633 -8.5112 -4.1614 -3.1905 46.8479 -0.9032 0.3980 19.7057 -0.0000 0.0000 0.0000 4.7502 30.9087 -12.5578 17.8466 -27.9603 4.4771 30.7574 18.3984 -24.2258 0.0 0.0 0.0 -7.1250 0.0 0.0 1.5729 57.6098 -0.4857 -0.0000 0.0000 0.0000 -26.6979 32.805 47.0314 -17.3281 -27.2882 -4.2367 -23.687 -1.2752 17.7517 0.0 0.0 0.0 7.1250 0.0 -0.0 4.2538 49.2017 -0.4415
